<svg xmlns="http://www.w3.org/2000/svg" width="1120" height="1120" viewBox="-50 170 1120 1120">
<g fill="none" stroke="#858585" stroke-width="25" stroke-linecap="round" stroke-linejoin="round">
<path d="M 655 1204 L 669 1206 L 715 1230 L 716 1234 L 656 1205"/>
<path d="M 267 1174 L 268 1179 L 285 1190 L 290 1189 L 329 1212 L 332 1210 L 268 1174"/>
<path d="M 576 1145 L 641 1174 L 604 1176 L 576 1146"/>
<path d="M 548 1126 L 615 1134 L 650 1174 L 642 1174 L 629 1163 L 574 1142 L 561 1130 L 558 1132 L 571 1143 L 571 1150 L 592 1174 L 532 1154 L 547 1126"/>
<path d="M 586 1089 L 611 1126 L 551 1120 L 562 1109 L 566 1120 L 571 1120 L 565 1108 L 576 1099 L 605 1123 L 595 1108 L 577 1096 L 585 1090"/>
<path d="M 655 1076 L 704 1179 L 699 1181 L 704 1187 L 701 1197 L 682 1175 L 622 1125 L 640 1100 L 644 1105 L 644 1093 L 655 1077"/>
<path d="M 637 1076 L 644 1075 L 646 1079 L 617 1122 L 609 1111 L 613 1104 L 619 1104 L 610 1098 L 616 1096 L 617 1080 L 636 1076"/>
<path d="M 478 1057 L 485 1058 L 485 1062 L 491 1056 L 530 1067 L 528 1071 L 545 1088 L 548 1086 L 535 1069 L 547 1077 L 551 1073 L 580 1082 L 579 1087 L 558 1094 L 560 1098 L 571 1093 L 534 1126 L 525 1151 L 521 1153 L 514 1146 L 408 1101 L 521 1121 L 509 1116 L 509 1107 L 495 1107 L 463 1089 L 462 1073 L 478 1069 L 522 1108 L 540 1117 L 520 1098 L 537 1093 L 520 1095 L 503 1084 L 505 1074 L 499 1065 L 496 1067 L 503 1078 L 498 1084 L 478 1064 L 482 1063 L 479 1058"/>
<path d="M 230 1052 L 252 1093 L 259 1094 L 285 1127 L 285 1121 L 231 1052"/>
<path d="M 449 1048 L 454 1048 L 462 1103 L 388 1087 L 448 1049"/>
<path d="M 513 1016 L 529 1026 L 514 1033 L 525 1033 L 532 1051 L 534 1022 L 542 1022 L 576 1072 L 516 1054 L 479 1035 L 512 1016"/>
<path d="M 542 1014 L 558 1018 L 586 1038 L 588 1044 L 607 1049 L 602 1054 L 623 1059 L 628 1064 L 622 1071 L 650 1069 L 651 1064 L 594 1040 L 568 1024 L 564 1017 L 608 1040 L 616 1036 L 655 1061 L 678 1099 L 675 1107 L 659 1073 L 647 1071 L 595 1082 L 590 1074 L 591 1065 L 585 1065 L 582 1073 L 543 1015"/>
<path d="M 378 986 L 446 1036 L 426 1037 L 444 1040 L 431 1042 L 420 1059 L 393 1076 L 391 1066 L 381 1054 L 386 1069 L 381 1081 L 377 1081 L 378 987"/>
<path d="M 159 984 L 158 993 L 164 995 L 165 1036 L 166 995 L 170 1001 L 176 999 L 176 994 L 160 984"/>
<path d="M 530 980 L 545 988 L 559 1006 L 591 1024 L 539 1004 L 540 998 L 530 981"/>
<path d="M 472 973 L 481 977 L 475 980 L 475 989 L 509 1004 L 513 999 L 520 1005 L 464 1034 L 479 1019 L 465 1010 L 472 974"/>
<path d="M 348 970 L 367 987 L 372 983 L 374 1021 L 361 1021 L 363 1046 L 340 989 L 342 973 L 347 971"/>
<path d="M 190 967 L 196 967 L 195 976 L 203 971 L 220 988 L 223 986 L 216 978 L 226 985 L 232 983 L 258 1006 L 226 1035 L 232 1016 L 227 1008 L 229 1018 L 223 1030 L 225 1037 L 221 1038 L 218 1029 L 213 1031 L 190 968"/>
<path d="M 161 956 L 171 965 L 173 983 L 179 979 L 217 1039 L 217 1048 L 251 1050 L 230 1047 L 227 1042 L 262 1011 L 265 1021 L 269 1020 L 303 1053 L 305 1050 L 282 1027 L 286 1024 L 347 1072 L 313 1065 L 351 1075 L 364 1086 L 361 1094 L 304 1130 L 299 1139 L 293 1139 L 294 1147 L 368 1096 L 377 1102 L 374 1106 L 387 1098 L 522 1158 L 605 1183 L 675 1220 L 644 1234 L 615 1240 L 595 1236 L 589 1241 L 583 1236 L 582 1242 L 549 1244 L 541 1249 L 512 1247 L 486 1255 L 394 1251 L 345 1241 L 327 1227 L 303 1219 L 290 1204 L 279 1201 L 258 1181 L 245 1175 L 232 1156 L 198 1128 L 197 1121 L 173 1095 L 174 1088 L 196 1115 L 202 1112 L 207 1118 L 203 1123 L 211 1132 L 217 1128 L 222 1133 L 220 1140 L 227 1137 L 231 1141 L 228 1147 L 234 1143 L 240 1149 L 236 1150 L 237 1155 L 244 1153 L 244 1148 L 187 1090 L 178 1066 L 176 1078 L 152 1047 L 161 1047 L 160 1039 L 155 1043 L 137 1010 L 133 996 L 139 990 L 142 992 L 141 975 L 135 974 L 148 958 L 161 981 L 163 972 L 156 961 L 160 956"/>
<path d="M 318 950 L 324 955 L 366 1078 L 308 1034 L 302 1019 L 296 1025 L 275 1008 L 274 1004 L 281 1001 L 279 994 L 314 952 L 315 969 L 319 969 L 322 960 L 317 961 L 317 950"/>
<path d="M 109 930 L 114 929 L 120 940 L 117 954 L 125 989 L 123 993 L 115 984 L 111 970 L 115 951 L 109 931"/>
<path d="M 412 924 L 464 958 L 457 964 L 466 963 L 467 971 L 453 971 L 458 980 L 466 977 L 462 1003 L 443 1001 L 422 962 L 405 945 L 414 943 L 408 930 L 412 925"/>
<path d="M 400 924 L 403 925 L 396 937 L 391 970 L 399 973 L 402 961 L 395 957 L 399 943 L 421 966 L 439 1002 L 448 1004 L 446 1009 L 440 1008 L 439 1014 L 443 1011 L 443 1016 L 434 1016 L 424 1007 L 421 1010 L 380 979 L 375 957 L 368 956 L 367 966 L 354 959 L 354 937 L 363 939 L 376 953 L 379 935 L 373 945 L 362 932 L 379 928 L 379 951 L 383 954 L 382 928 L 399 924"/>
<path d="M 219 915 L 218 921 L 222 926 L 228 921 L 234 935 L 234 947 L 226 949 L 226 953 L 235 952 L 236 956 L 244 951 L 237 919 L 232 922 L 220 915"/>
<path d="M 514 907 L 529 906 L 532 910 L 531 925 L 539 935 L 542 955 L 558 994 L 554 994 L 540 962 L 534 963 L 532 969 L 514 957 L 513 952 L 525 957 L 524 950 L 514 949 L 521 947 L 522 934 L 532 953 L 536 952 L 528 922 L 523 921 L 520 931 L 511 927 L 517 920 L 514 908"/>
<path d="M 152 906 L 163 926 L 160 935 L 145 933 L 147 948 L 136 946 L 129 939 L 127 928 L 130 917 L 133 924 L 136 912 L 148 923 L 152 917 L 146 914 L 152 907"/>
<path d="M 240 891 L 250 895 L 246 903 L 252 905 L 247 906 L 249 913 L 254 914 L 251 919 L 259 920 L 254 909 L 260 898 L 308 935 L 311 945 L 271 991 L 275 966 L 269 968 L 266 981 L 262 979 L 258 967 L 260 961 L 264 966 L 262 955 L 255 952 L 240 892"/>
<path d="M 223 889 L 235 899 L 260 995 L 198 950 L 205 947 L 204 941 L 199 942 L 204 938 L 203 921 L 196 928 L 193 924 L 188 924 L 188 930 L 180 928 L 222 890"/>
<path d="M 182 880 L 187 881 L 186 892 L 194 899 L 202 883 L 211 889 L 184 915 L 183 908 L 190 897 L 176 892 L 174 882 L 181 881"/>
<path d="M 486 868 L 491 869 L 478 921 L 455 916 L 455 925 L 465 928 L 468 935 L 424 923 L 426 917 L 421 915 L 450 892 L 451 906 L 456 910 L 452 899 L 470 884 L 466 894 L 469 897 L 477 884 L 471 878 L 486 869"/>
<path d="M 227 858 L 231 863 L 244 864 L 245 870 L 259 872 L 244 872 L 247 877 L 237 884 L 235 891 L 233 884 L 227 885 L 225 881 L 227 859"/>
<path d="M 298 849 L 321 865 L 320 871 L 330 872 L 364 901 L 353 905 L 353 901 L 345 899 L 343 903 L 339 892 L 332 893 L 328 885 L 324 901 L 315 900 L 309 869 L 298 857 L 299 869 L 304 868 L 311 921 L 309 916 L 296 919 L 259 888 L 290 895 L 290 891 L 279 886 L 281 882 L 270 881 L 267 875 L 273 870 L 271 866 L 261 868 L 265 860 L 283 850 L 281 864 L 286 864 L 297 849"/>
<path d="M 549 841 L 555 847 L 527 893 L 522 889 L 548 841"/>
<path d="M 324 831 L 327 836 L 341 840 L 334 855 L 350 832 L 353 839 L 363 837 L 367 893 L 334 868 L 356 873 L 355 868 L 327 858 L 308 844 L 310 837 L 323 831"/>
<path d="M 384 826 L 485 860 L 461 878 L 457 873 L 459 867 L 450 870 L 455 872 L 422 878 L 400 888 L 406 874 L 398 870 L 403 877 L 398 882 L 393 878 L 395 873 L 377 830 L 403 845 L 424 865 L 444 859 L 427 863 L 384 827"/>
<path d="M 163 814 L 170 841 L 160 841 L 159 845 L 167 849 L 149 879 L 144 858 L 149 842 L 156 841 L 151 837 L 152 830 L 164 821 L 163 815"/>
<path d="M 663 792 L 671 795 L 645 805 L 632 820 L 626 817 L 616 825 L 597 828 L 597 834 L 602 834 L 586 841 L 582 857 L 569 872 L 571 878 L 561 892 L 556 890 L 556 909 L 547 914 L 547 924 L 540 922 L 539 928 L 533 922 L 533 913 L 555 866 L 564 857 L 576 824 L 593 813 L 616 810 L 662 792"/>
<path d="M 284 781 L 288 781 L 290 797 L 281 792 L 282 802 L 275 817 L 269 820 L 266 835 L 285 838 L 286 829 L 292 830 L 293 822 L 295 831 L 287 843 L 266 852 L 264 844 L 245 852 L 265 788 L 269 784 L 277 796 L 284 782"/>
<path d="M 219 780 L 236 779 L 241 788 L 246 788 L 250 779 L 265 783 L 246 817 L 239 813 L 236 825 L 228 830 L 219 781"/>
<path d="M 312 776 L 314 786 L 321 786 L 319 791 L 328 802 L 328 809 L 312 813 L 310 824 L 316 814 L 338 807 L 337 793 L 355 811 L 307 832 L 300 817 L 296 787 L 302 781 L 311 782 L 312 777"/>
<path d="M 582 775 L 607 784 L 605 790 L 619 798 L 609 800 L 618 802 L 612 805 L 595 795 L 576 792 L 582 776"/>
<path d="M 200 773 L 217 779 L 225 831 L 223 839 L 219 825 L 222 845 L 191 799 L 190 788 L 194 784 L 211 820 L 215 818 L 209 804 L 215 809 L 201 785 L 194 784 L 199 773"/>
<path d="M 636 760 L 653 760 L 670 772 L 687 771 L 691 766 L 698 770 L 679 779 L 656 777 L 658 769 L 631 771 L 653 773 L 630 784 L 620 774 L 639 768 L 622 766 L 635 760"/>
<path d="M 525 759 L 549 777 L 545 787 L 553 779 L 555 786 L 560 786 L 558 776 L 571 776 L 574 780 L 564 794 L 565 802 L 574 794 L 571 806 L 560 816 L 551 813 L 541 836 L 501 856 L 505 847 L 502 839 L 522 769 L 519 804 L 512 830 L 521 806 L 526 777 L 524 760"/>
<path d="M 870 758 L 877 762 L 871 777 L 850 786 L 840 783 L 847 775 L 833 785 L 805 775 L 801 764 L 828 759 L 827 775 L 836 777 L 836 762 L 847 765 L 855 759 L 857 769 L 861 769 L 869 759"/>
<path d="M 399 746 L 412 761 L 393 762 L 395 770 L 407 773 L 415 765 L 480 851 L 466 848 L 466 841 L 469 845 L 473 843 L 441 817 L 463 843 L 461 846 L 434 836 L 436 809 L 431 799 L 430 814 L 397 799 L 397 789 L 391 793 L 391 798 L 434 819 L 431 833 L 427 822 L 427 835 L 366 811 L 388 751 L 398 746"/>
<path d="M 190 744 L 195 747 L 188 761 L 200 760 L 194 765 L 197 770 L 191 783 L 182 775 L 172 784 L 166 773 L 167 765 L 189 745"/>
<path d="M 788 743 L 804 743 L 807 754 L 822 748 L 825 751 L 825 742 L 827 747 L 832 744 L 832 757 L 804 761 L 783 750 L 781 745 L 787 743"/>
<path d="M 354 735 L 371 734 L 376 745 L 378 736 L 383 745 L 360 787 L 355 776 L 359 791 L 371 782 L 363 802 L 351 796 L 352 789 L 345 790 L 343 780 L 335 779 L 314 762 L 319 742 L 333 740 L 345 753 L 350 786 L 350 761 L 336 737 L 353 735"/>
<path d="M 193 727 L 200 730 L 195 730 L 183 748 L 164 763 L 165 778 L 131 841 L 126 870 L 122 867 L 129 798 L 143 787 L 145 776 L 141 766 L 148 764 L 148 746 L 162 744 L 172 730 L 185 734 L 193 728"/>
<path d="M 451 701 L 457 701 L 454 705 L 461 707 L 485 736 L 488 734 L 472 712 L 510 743 L 504 753 L 520 752 L 505 813 L 499 815 L 500 788 L 493 851 L 478 837 L 478 825 L 471 828 L 415 755 L 423 757 L 477 816 L 484 829 L 479 813 L 427 759 L 426 750 L 420 748 L 422 738 L 416 733 L 431 738 L 431 743 L 425 745 L 436 754 L 439 749 L 447 756 L 462 758 L 450 760 L 456 768 L 468 766 L 462 760 L 471 755 L 470 742 L 498 751 L 501 747 L 464 736 L 412 729 L 415 722 L 450 702"/>
<path d="M 547 700 L 564 715 L 562 722 L 575 751 L 574 762 L 557 759 L 563 753 L 569 755 L 564 750 L 571 745 L 557 742 L 566 737 L 558 736 L 560 729 L 547 701"/>
<path d="M 830 687 L 835 686 L 845 699 L 875 701 L 890 707 L 853 719 L 848 716 L 848 708 L 842 719 L 836 696 L 829 688"/>
<path d="M 728 680 L 777 681 L 782 691 L 790 692 L 783 697 L 787 713 L 793 691 L 803 691 L 802 700 L 812 697 L 820 704 L 820 691 L 825 697 L 831 696 L 836 710 L 821 732 L 810 733 L 808 729 L 774 720 L 746 719 L 755 724 L 753 736 L 746 738 L 733 710 L 734 706 L 744 707 L 746 703 L 726 704 L 717 696 L 716 703 L 705 704 L 715 688 L 721 690 L 718 682 L 730 683 L 732 697 L 743 701 L 740 682 L 729 681"/>
<path d="M 297 679 L 303 697 L 286 717 L 310 708 L 300 715 L 300 724 L 309 735 L 302 744 L 300 761 L 292 765 L 298 754 L 280 753 L 276 758 L 265 741 L 257 744 L 268 731 L 254 737 L 254 725 L 261 721 L 260 715 L 271 709 L 270 695 L 279 691 L 285 694 L 296 680"/>
<path d="M 402 672 L 412 677 L 405 680 L 405 686 L 401 685 L 400 694 L 411 685 L 418 691 L 406 696 L 409 700 L 396 702 L 391 691 L 401 672"/>
<path d="M 259 671 L 265 672 L 268 706 L 263 709 L 250 704 L 260 710 L 257 714 L 248 713 L 257 719 L 251 723 L 243 717 L 249 697 L 258 701 L 257 695 L 265 691 L 259 685 L 263 679 L 254 680 L 259 672"/>
<path d="M 518 660 L 543 695 L 558 738 L 547 733 L 541 705 L 530 688 L 515 676 L 518 661"/>
<path d="M 499 658 L 503 658 L 502 683 L 510 679 L 518 699 L 514 715 L 519 718 L 514 719 L 515 723 L 500 724 L 495 715 L 477 703 L 497 705 L 489 699 L 489 685 L 470 691 L 480 678 L 487 680 L 484 675 L 490 669 L 495 671 L 493 663 L 498 659"/>
<path d="M 886 656 L 892 659 L 904 688 L 900 693 L 888 669 L 883 668 L 878 678 L 884 678 L 885 700 L 876 701 L 853 678 L 832 681 L 847 675 L 853 664 L 876 668 L 887 657"/>
<path d="M 543 654 L 563 662 L 570 671 L 572 689 L 615 711 L 613 717 L 588 730 L 582 721 L 581 707 L 577 707 L 580 720 L 578 725 L 561 706 L 565 703 L 562 690 L 536 665 L 543 655"/>
<path d="M 357 648 L 340 660 L 336 657 L 327 671 L 326 658 L 320 676 L 312 669 L 317 659 L 356 648"/>
<path d="M 632 640 L 650 644 L 696 671 L 692 683 L 696 698 L 691 699 L 657 672 L 633 648 L 632 641"/>
<path d="M 563 636 L 575 645 L 570 657 L 598 684 L 604 683 L 601 689 L 608 694 L 613 692 L 630 707 L 623 712 L 573 685 L 572 674 L 585 686 L 587 682 L 558 655 L 564 654 L 559 639 L 562 637"/>
<path d="M 569 634 L 594 635 L 600 643 L 597 647 L 613 662 L 616 660 L 607 651 L 610 644 L 620 654 L 619 661 L 628 677 L 634 679 L 633 697 L 570 635"/>
<path d="M 455 633 L 461 632 L 452 672 L 453 684 L 425 670 L 454 634"/>
<path d="M 376 624 L 381 634 L 391 639 L 406 638 L 402 654 L 397 651 L 400 647 L 386 647 L 382 655 L 372 658 L 361 647 L 361 634 L 365 631 L 374 636 L 376 625"/>
<path d="M 331 620 L 351 629 L 332 630 L 336 638 L 355 645 L 313 658 L 312 653 L 306 653 L 296 669 L 297 675 L 286 681 L 311 636 L 318 634 L 320 646 L 325 642 L 329 648 L 329 643 L 334 643 L 333 637 L 323 639 L 324 632 L 320 632 L 331 621"/>
<path d="M 494 605 L 539 611 L 555 625 L 554 630 L 536 637 L 534 633 L 497 629 L 491 612 L 497 610 L 495 606"/>
<path d="M 427 603 L 456 609 L 449 610 L 449 616 L 429 621 L 428 626 L 415 626 L 408 635 L 407 620 L 417 611 L 427 609 L 427 604"/>
<path d="M 714 602 L 822 642 L 886 654 L 850 656 L 817 647 L 814 653 L 805 642 L 769 630 L 758 622 L 755 624 L 772 633 L 781 645 L 731 621 L 727 627 L 739 633 L 735 636 L 720 629 L 721 617 L 709 617 L 726 615 L 715 603"/>
<path d="M 605 589 L 613 589 L 639 607 L 633 612 L 654 624 L 656 618 L 671 628 L 638 633 L 580 593 L 604 589"/>
<path d="M 389 589 L 397 602 L 389 604 L 389 609 L 379 617 L 373 608 L 372 621 L 367 616 L 359 618 L 360 613 L 352 613 L 354 606 L 345 604 L 374 589 L 369 604 L 377 605 L 377 593 L 380 592 L 379 600 L 384 601 L 389 590"/>
<path d="M 422 557 L 427 557 L 464 600 L 460 606 L 437 602 L 443 597 L 446 601 L 454 600 L 448 591 L 435 596 L 433 601 L 427 599 L 423 592 L 422 558"/>
<path d="M 583 550 L 628 562 L 649 559 L 707 594 L 698 602 L 704 598 L 712 605 L 695 613 L 669 601 L 674 595 L 683 597 L 662 593 L 661 590 L 676 590 L 676 585 L 656 572 L 650 574 L 655 586 L 639 582 L 638 587 L 635 573 L 621 579 L 619 585 L 649 591 L 675 609 L 683 608 L 688 613 L 685 620 L 697 621 L 682 625 L 682 632 L 723 641 L 756 661 L 764 655 L 758 638 L 783 648 L 785 654 L 776 653 L 778 664 L 786 663 L 781 671 L 771 667 L 765 658 L 760 668 L 740 671 L 757 672 L 766 667 L 787 676 L 782 680 L 721 676 L 713 673 L 706 661 L 711 674 L 704 676 L 703 683 L 713 685 L 706 695 L 695 683 L 698 668 L 680 658 L 672 641 L 641 635 L 675 632 L 673 625 L 614 586 L 577 591 L 587 619 L 561 588 L 561 582 L 543 569 L 556 564 L 565 569 L 565 562 L 582 551"/>
<path d="M 514 522 L 549 535 L 559 543 L 559 549 L 577 547 L 569 557 L 563 554 L 558 558 L 534 532 L 527 531 L 520 538 L 514 523"/>
<path d="M 447 518 L 483 522 L 483 531 L 464 538 L 465 545 L 477 541 L 483 531 L 488 533 L 491 550 L 482 558 L 480 551 L 476 551 L 473 565 L 470 560 L 475 578 L 465 590 L 448 519"/>
<path d="M 557 486 L 573 486 L 578 489 L 575 493 L 582 491 L 593 497 L 572 508 L 573 514 L 537 514 L 535 509 L 555 493 L 562 511 L 567 509 L 559 497 L 565 494 L 560 494 L 557 487"/>
<path d="M 464 454 L 481 505 L 463 494 L 461 497 L 480 514 L 446 511 L 453 488 L 465 489 L 456 481 L 463 455"/>
<path d="M 609 452 L 616 453 L 616 457 L 624 451 L 654 452 L 658 465 L 649 481 L 629 484 L 626 480 L 607 498 L 603 496 L 611 485 L 611 476 L 600 476 L 599 481 L 605 482 L 594 493 L 569 480 L 580 470 L 583 474 L 584 468 L 594 461 L 606 459 L 604 456 L 609 453"/>
<path d="M 469 439 L 505 506 L 511 508 L 510 515 L 516 517 L 511 529 L 520 541 L 513 544 L 506 535 L 509 543 L 504 546 L 498 532 L 490 530 L 489 521 L 481 518 L 486 517 L 482 498 L 489 509 L 493 503 L 484 483 L 480 483 L 478 490 L 472 471 L 476 470 L 476 459 L 467 447 L 469 440"/>
<path d="M 858 195 L 845 205 L 841 227 L 830 239 L 821 242 L 804 260 L 787 263 L 773 283 L 761 279 L 761 291 L 754 296 L 744 294 L 742 302 L 730 309 L 727 305 L 714 308 L 707 322 L 694 325 L 694 331 L 674 355 L 650 362 L 636 374 L 627 374 L 623 369 L 610 372 L 609 376 L 614 378 L 600 384 L 603 389 L 593 391 L 591 400 L 578 408 L 579 421 L 559 445 L 546 448 L 539 444 L 527 449 L 527 444 L 521 443 L 515 444 L 515 451 L 501 451 L 495 444 L 481 442 L 479 433 L 486 430 L 486 425 L 473 429 L 470 408 L 462 410 L 459 431 L 428 479 L 425 501 L 415 515 L 409 515 L 413 522 L 408 534 L 392 547 L 388 544 L 385 550 L 369 556 L 355 573 L 349 571 L 323 591 L 317 587 L 294 621 L 287 622 L 273 637 L 269 636 L 269 628 L 262 634 L 254 632 L 250 655 L 242 660 L 244 666 L 215 695 L 199 722 L 187 724 L 185 729 L 170 728 L 159 742 L 145 743 L 146 753 L 133 762 L 142 777 L 132 790 L 124 792 L 127 808 L 122 824 L 126 826 L 116 831 L 122 852 L 117 855 L 118 874 L 113 876 L 114 903 L 109 903 L 111 912 L 106 916 L 111 948 L 108 954 L 112 957 L 109 986 L 123 1001 L 123 1021 L 131 1029 L 133 1043 L 147 1052 L 148 1074 L 154 1068 L 157 1085 L 164 1085 L 162 1092 L 170 1093 L 181 1116 L 212 1148 L 217 1146 L 242 1177 L 259 1187 L 260 1194 L 266 1193 L 284 1205 L 293 1219 L 324 1229 L 325 1234 L 339 1242 L 381 1250 L 386 1256 L 438 1254 L 437 1259 L 445 1255 L 491 1255 L 497 1259 L 498 1254 L 522 1250 L 547 1253 L 572 1244 L 580 1247 L 593 1242 L 638 1242 L 638 1237 L 683 1224 L 765 1270 L 770 1270 L 770 1262 L 672 1077 L 673 1071 L 659 1054 L 653 1054 L 624 1031 L 598 1018 L 597 1012 L 581 1008 L 568 993 L 570 987 L 561 981 L 560 966 L 552 960 L 551 954 L 559 952 L 550 930 L 551 921 L 566 887 L 583 866 L 583 853 L 588 846 L 610 835 L 612 827 L 634 827 L 645 809 L 664 804 L 678 793 L 705 792 L 718 796 L 738 787 L 749 790 L 750 785 L 768 784 L 807 791 L 824 802 L 872 789 L 886 770 L 887 756 L 912 728 L 918 715 L 912 685 L 901 670 L 894 647 L 847 643 L 803 631 L 724 598 L 704 580 L 712 573 L 697 575 L 702 586 L 651 557 L 630 560 L 597 546 L 573 544 L 571 539 L 579 529 L 557 537 L 534 527 L 533 520 L 576 519 L 583 530 L 592 534 L 614 531 L 620 516 L 616 504 L 632 485 L 647 486 L 666 462 L 673 461 L 672 457 L 659 459 L 657 455 L 682 427 L 703 423 L 712 414 L 712 404 L 719 402 L 712 397 L 723 375 L 754 339 L 773 334 L 773 315 L 790 288 L 786 287 L 769 309 L 760 309 L 746 319 L 751 321 L 767 311 L 773 321 L 771 331 L 753 337 L 753 331 L 743 327 L 745 338 L 725 352 L 729 358 L 701 390 L 693 392 L 703 392 L 713 385 L 707 399 L 709 412 L 696 423 L 679 421 L 653 449 L 644 446 L 644 450 L 636 450 L 636 437 L 632 449 L 623 449 L 618 441 L 645 412 L 634 405 L 629 409 L 631 419 L 607 446 L 566 472 L 557 471 L 527 495 L 507 500 L 478 446 L 488 446 L 489 451 L 499 453 L 499 460 L 515 459 L 518 452 L 556 451 L 582 423 L 584 409 L 594 402 L 597 393 L 608 389 L 609 383 L 621 376 L 639 376 L 653 364 L 674 362 L 714 317 L 719 318 L 725 311 L 727 317 L 732 317 L 733 310 L 744 306 L 746 297 L 754 299 L 763 294 L 764 281 L 774 287 L 790 265 L 807 262 L 823 252 L 842 231 L 853 199 L 871 200 L 876 207 L 874 216 L 848 231 L 831 248 L 820 266 L 821 276 L 815 279 L 816 285 L 810 287 L 801 307 L 794 310 L 794 323 L 788 326 L 787 340 L 779 356 L 779 374 L 784 382 L 774 392 L 752 397 L 753 402 L 744 406 L 742 421 L 726 443 L 738 453 L 729 454 L 726 459 L 722 458 L 724 454 L 718 454 L 720 465 L 713 467 L 717 471 L 713 489 L 717 498 L 713 505 L 719 504 L 721 509 L 716 510 L 713 524 L 719 530 L 722 524 L 725 530 L 716 538 L 718 550 L 708 555 L 710 563 L 701 564 L 711 567 L 722 551 L 719 541 L 728 533 L 723 520 L 727 516 L 719 501 L 721 496 L 716 493 L 723 473 L 720 469 L 725 462 L 736 464 L 741 455 L 731 443 L 744 424 L 744 414 L 763 394 L 776 395 L 787 384 L 790 370 L 784 365 L 789 358 L 786 346 L 791 329 L 797 324 L 799 333 L 808 336 L 808 331 L 797 323 L 796 314 L 802 313 L 811 291 L 824 278 L 821 271 L 829 271 L 827 259 L 852 232 L 864 229 L 877 217 L 879 221 L 884 219 L 874 198 L 859 195"/>
</g></svg>